<svg width="189" height="35" viewBox="0 0 189 35" fill="none" xmlns="http://www.w3.org/2000/svg">
<path d="M7.46003 5.66902H27.2783V20.726C27.2783 26.1986 22.8418 30.6351 17.3692 30.6351C11.8965 30.6351 7.46003 26.1986 7.46003 20.726V5.66902Z" stroke="white" stroke-width="1.80239"/>
<path d="M17.3728 6.26428H26.5856V16.3882H17.3728V6.26428Z" fill="white"/>
<path d="M17.3728 17.332H26.5851V20.5602C26.5851 25.648 22.4606 29.7725 17.3728 29.7725V17.332Z" fill="white"/>
<rect x="8.1366" y="16.3838" width="9.13651" height="0.948218" fill="white"/>
<path d="M47.3773 28.7002C51.7538 28.7002 55.209 26.1408 55.9512 22.1481H52.5473C51.8562 24.1445 49.8599 25.4754 47.4541 25.4754C44.1012 25.4754 41.8234 23.0695 41.8234 19.0257C41.8234 15.1354 43.9477 12.5504 47.4541 12.5504C49.6807 12.5504 51.5491 13.7533 52.1889 15.9544H55.6697C55.0299 11.9617 51.7794 9.35116 47.5308 9.35116C42.0793 9.35116 38.3938 13.2414 38.3938 19.0513C38.3938 25.0914 42.0793 28.7002 47.3773 28.7002ZM61.5307 28.3931V9.35116H58.4083V28.3931H61.5307ZM68.6143 28.7258C70.6106 28.7258 72.1206 27.83 72.6581 26.5247L72.8885 28.3931H75.627V20.7149C75.627 17.3621 73.6819 15.3657 70.1243 15.3657C66.8483 15.3657 64.596 17.1829 64.6216 19.8959H67.2834C67.2578 18.5906 68.2559 17.7972 69.9707 17.7972C71.5064 17.7972 72.5813 18.4626 72.5813 20.203V20.4845L68.9726 20.7661C66.1316 20.9964 64.2889 22.3273 64.2889 24.7843C64.2889 27.139 65.9013 28.7258 68.6143 28.7258ZM69.638 26.3711C68.2304 26.3711 67.4625 25.7569 67.4625 24.6563C67.4625 23.6326 68.128 23.0183 69.9707 22.8392L72.6069 22.6088V23.2743C72.6069 25.6289 70.9689 26.3711 69.638 26.3711ZM77.7779 24.6052C77.8803 27.1134 79.8254 28.7258 82.8455 28.7258C85.8144 28.7258 87.8363 27.139 87.8363 24.6819C87.8363 22.8648 86.7102 21.6363 84.6371 21.1244L82.4104 20.5869C81.4634 20.331 80.8236 19.9982 80.8236 19.1792C80.8236 18.309 81.5146 17.6948 82.6408 17.6948C83.8181 17.6948 84.5859 18.3602 84.5859 19.4608H87.4268C87.3244 16.9526 85.4561 15.3657 82.7175 15.3657C80.0046 15.3657 77.9827 16.9526 77.9827 19.3584C77.9827 20.9964 78.9296 22.3529 81.3611 22.9927L83.5621 23.5558C84.3811 23.7862 84.893 24.1701 84.893 24.8867C84.893 25.8849 83.946 26.3455 82.7943 26.3455C81.4122 26.3455 80.6188 25.7057 80.6188 24.6052H77.7779ZM89.3252 24.6052C89.4275 27.1134 91.3727 28.7258 94.3928 28.7258C97.3617 28.7258 99.3836 27.139 99.3836 24.6819C99.3836 22.8648 98.2575 21.6363 96.1844 21.1244L93.9577 20.5869C93.0107 20.331 92.3709 19.9982 92.3709 19.1792C92.3709 18.309 93.0619 17.6948 94.188 17.6948C95.3653 17.6948 96.1332 18.3602 96.1332 19.4608H98.9741C98.8717 16.9526 97.0034 15.3657 94.2648 15.3657C91.5518 15.3657 89.5299 16.9526 89.5299 19.3584C89.5299 20.9964 90.4769 22.3529 92.9083 22.9927L95.1094 23.5558C95.9284 23.7862 96.4403 24.1701 96.4403 24.8867C96.4403 25.8849 95.4933 26.3455 94.3416 26.3455C92.9595 26.3455 92.1661 25.7057 92.1661 24.6052H89.3252ZM110.006 15.6985C108.087 15.2634 105.911 15.6985 105.144 17.2341L104.964 15.7752H102.098V28.3931H105.22V22.2505C105.22 19.7935 106.526 18.4114 108.778 18.4114H110.006V15.6985ZM111.149 22.0458C111.149 25.936 113.759 28.7002 117.726 28.7002C121.693 28.7002 124.304 25.936 124.304 22.0458C124.304 18.1555 121.693 15.3913 117.726 15.3913C113.759 15.3913 111.149 18.1555 111.149 22.0458ZM114.297 22.0458C114.297 19.7679 115.653 18.1811 117.726 18.1811C119.799 18.1811 121.156 19.7679 121.156 22.0458C121.156 24.298 119.799 25.9105 117.726 25.9105C115.653 25.9105 114.297 24.298 114.297 22.0458ZM126.045 22.0458C126.045 25.936 128.656 28.7002 132.623 28.7002C136.59 28.7002 139.2 25.936 139.2 22.0458C139.2 18.1555 136.59 15.3913 132.623 15.3913C128.656 15.3913 126.045 18.1555 126.045 22.0458ZM129.193 22.0458C129.193 19.7679 130.55 18.1811 132.623 18.1811C134.696 18.1811 136.052 19.7679 136.052 22.0458C136.052 24.298 134.696 25.9105 132.623 25.9105C130.55 25.9105 129.193 24.298 129.193 22.0458ZM145.011 28.3931V21.1244C145.011 19.0769 146.214 18.1043 147.698 18.1043C149.183 18.1043 150.155 19.0513 150.155 20.8428V28.3931H153.201V21.15C153.201 19.0769 154.378 18.1043 155.863 18.1043C157.373 18.1043 158.345 19.0513 158.345 20.8428V28.3931H161.366V20.1262C161.366 17.2085 159.753 15.3657 156.682 15.3657C154.762 15.3657 153.252 16.2871 152.638 17.7716C151.947 16.2871 150.565 15.3657 148.466 15.3657C146.982 15.3657 145.651 16.0568 144.909 17.1829L144.755 15.7497H141.889V28.3931H145.011ZM176.825 19.0513L170.349 28.3675H174.419L178.923 21.6107C179.231 22.1737 180.101 23.6582 181.15 25.2962L183.198 28.3931H187.395L180.945 19.0257L187.344 9.68388H183.3L178.949 16.6454C178.667 16.108 177.49 14.1884 176.748 13.0367L174.496 9.68388H170.324L176.825 19.0513Z" fill="white"/>
</svg>
