<svg width="180" height="32" viewBox="0 0 180 32" fill="none" xmlns="http://www.w3.org/2000/svg">
<path d="M7.07329 4.7105H25.4791V18.6943C25.4791 23.7769 21.3588 27.8972 16.2762 27.8972C11.1936 27.8972 7.07329 23.7769 7.07329 18.6943V4.7105Z" stroke="#BB3950" stroke-width="1.67393"/>
<path d="M16.2793 5.26331H24.8355V14.6657H16.2793V5.26331Z" fill="#BB3950"/>
<path d="M16.2793 15.5423H24.835V18.5404C24.835 23.2656 21.0045 27.0961 16.2793 27.0961V15.5423Z" fill="#BB3950"/>
<rect x="7.70117" y="14.6617" width="8.48534" height="0.880637" fill="#BB3950"/>
<path d="M48.6042 25.8842C52.6689 25.8842 55.8778 23.5072 56.5671 19.7991H53.4057C52.7639 21.6532 50.9099 22.8892 48.6755 22.8892C45.5617 22.8892 43.4462 20.6548 43.4462 16.8992C43.4462 13.2862 45.4191 10.8854 48.6755 10.8854C50.7435 10.8854 52.4787 12.0026 53.073 14.0468H56.3057C55.7114 10.3387 52.6926 7.9142 48.7468 7.9142C43.6839 7.9142 40.261 11.5272 40.261 16.923C40.261 22.5327 43.6839 25.8842 48.6042 25.8842ZM61.7489 25.599V7.9142H58.849V25.599H61.7489ZM68.3276 25.908C70.1817 25.908 71.5841 25.076 72.0833 23.8638L72.2972 25.599H74.8406V18.468C74.8406 15.3542 73.0341 13.5001 69.73 13.5001C66.6875 13.5001 64.5958 15.1878 64.6195 17.7074H67.0916C67.0678 16.4951 67.9948 15.7583 69.5874 15.7583C71.0136 15.7583 72.0119 16.3763 72.0119 17.9926V18.2541L68.6604 18.5156C66.0219 18.7295 64.3105 19.9655 64.3105 22.2474C64.3105 24.4342 65.808 25.908 68.3276 25.908ZM69.2784 23.7212C67.9711 23.7212 67.258 23.1507 67.258 22.1286C67.258 21.1778 67.876 20.6073 69.5874 20.4409L72.0357 20.227V20.845C72.0357 23.0318 70.5144 23.7212 69.2784 23.7212ZM76.8382 22.081C76.9332 24.4105 78.7397 25.908 81.5446 25.908C84.3019 25.908 86.1797 24.4342 86.1797 22.1523C86.1797 20.4647 85.1338 19.3237 83.2085 18.8483L81.1405 18.3492C80.261 18.1115 79.6668 17.8025 79.6668 17.0418C79.6668 16.2336 80.3086 15.6632 81.3544 15.6632C82.4478 15.6632 83.1609 16.2812 83.1609 17.3033H85.7994C85.7043 14.9738 83.9691 13.5001 81.4257 13.5001C78.9061 13.5001 77.0283 14.9738 77.0283 17.2082C77.0283 18.7295 77.9078 19.9893 80.1659 20.5835L82.2101 21.1065C82.9708 21.3204 83.4462 21.6769 83.4462 22.3425C83.4462 23.2695 82.5667 23.6974 81.497 23.6974C80.2135 23.6974 79.4766 23.1031 79.4766 22.081H76.8382ZM87.5624 22.081C87.6575 24.4105 89.464 25.908 92.2689 25.908C95.0262 25.908 96.904 24.4342 96.904 22.1523C96.904 20.4647 95.8581 19.3237 93.9328 18.8483L91.8648 18.3492C90.9853 18.1115 90.3911 17.8025 90.3911 17.0418C90.3911 16.2336 91.0328 15.6632 92.0787 15.6632C93.1721 15.6632 93.8852 16.2812 93.8852 17.3033H96.5237C96.4286 14.9738 94.6934 13.5001 92.15 13.5001C89.6304 13.5001 87.7526 14.9738 87.7526 17.2082C87.7526 18.7295 88.6321 19.9893 90.8902 20.5835L92.9344 21.1065C93.6951 21.3204 94.1705 21.6769 94.1705 22.3425C94.1705 23.2695 93.291 23.6974 92.2213 23.6974C90.9378 23.6974 90.2009 23.1031 90.2009 22.081H87.5624ZM106.77 13.8091C104.987 13.405 102.967 13.8091 102.254 15.2353L102.087 13.8804H99.4249V25.599H102.325V19.8942C102.325 17.6123 103.537 16.3287 105.629 16.3287H106.77V13.8091ZM107.831 19.704C107.831 23.3171 110.255 25.8842 113.939 25.8842C117.624 25.8842 120.048 23.3171 120.048 19.704C120.048 16.091 117.624 13.5239 113.939 13.5239C110.255 13.5239 107.831 16.091 107.831 19.704ZM110.754 19.704C110.754 17.5885 112.014 16.1148 113.939 16.1148C115.865 16.1148 117.125 17.5885 117.125 19.704C117.125 21.7958 115.865 23.2933 113.939 23.2933C112.014 23.2933 110.754 21.7958 110.754 19.704ZM121.665 19.704C121.665 23.3171 124.09 25.8842 127.774 25.8842C131.458 25.8842 133.883 23.3171 133.883 19.704C133.883 16.091 131.458 13.5239 127.774 13.5239C124.09 13.5239 121.665 16.091 121.665 19.704ZM124.589 19.704C124.589 17.5885 125.849 16.1148 127.774 16.1148C129.7 16.1148 130.959 17.5885 130.959 19.704C130.959 21.7958 129.7 23.2933 127.774 23.2933C125.849 23.2933 124.589 21.7958 124.589 19.704ZM139.279 25.599V18.8483C139.279 16.9467 140.397 16.0435 141.775 16.0435C143.154 16.0435 144.057 16.923 144.057 18.5869V25.599H146.886V18.8721C146.886 16.9467 147.979 16.0435 149.358 16.0435C150.76 16.0435 151.664 16.923 151.664 18.5869V25.599H154.468V17.9213C154.468 15.2115 152.971 13.5001 150.119 13.5001C148.336 13.5001 146.933 14.3558 146.363 15.7345C145.721 14.3558 144.438 13.5001 142.488 13.5001C141.11 13.5001 139.874 14.1419 139.184 15.1878L139.042 13.8567H136.38V25.599H139.279ZM168.826 16.923L162.812 25.5752H166.591L170.775 19.3C171.06 19.8229 171.868 21.2015 172.843 22.7228L174.744 25.599H178.643L172.653 16.8992L178.595 8.22321H174.84L170.799 14.6886C170.537 14.1894 169.444 12.4067 168.754 11.3371L166.663 8.22321H162.788L168.826 16.923Z" fill="#0B1829"/>
</svg>
