<svg width="81" height="82" viewBox="0 0 81 82" fill="none" xmlns="http://www.w3.org/2000/svg">
<rect width="81" height="82" fill="#1B2B4A"/>
<path d="M55.0455 61H25.9545C22.9436 61 20.5 58.5564 20.5 55.5455V21H49.5909V37.3636" stroke="white" stroke-width="1.5"/>
<path d="M55.0455 61.0001C52.0346 61.0001 49.5909 58.5565 49.5909 55.5455V31.9092H60.5V55.5455C60.5 58.5565 58.0564 61.0001 55.0455 61.0001Z" stroke="white" stroke-width="1.5"/>
<path d="M27.7728 39.1819H31.4091M38.6819 53.7274H42.3182H38.6819ZM27.7728 53.7274H31.4091H27.7728ZM38.6819 46.4546H42.3182H38.6819ZM27.7728 46.4546H31.4091H27.7728ZM38.6819 39.1819H42.3182H38.6819ZM27.7728 31.9092H42.3182H27.7728Z" stroke="white" stroke-width="1.5" stroke-linecap="square"/>
</svg>
