<svg version="1.1" preserveAspectRatio="none" xmlns="http://www.w3.org/2000/svg" width="500" height="500" viewBox="0 0 500 500"><rect width="100%" height="100%" fill="#F1F1F1" fill-opacity="1"/><svg viewBox="-20.7198 25.1611 393.3133 258.5691" width="333" height="218.9183795717053" x="83.5px" y="140.5408px" xmlns="http://www.w3.org/2000/svg" xmlns:xlink="http://www.w3.org/1999/xlink" preserveAspectRatio="none"><defs></defs><style>.aIptOCySncolors-3 {fill:#F1F1F1;fill-opacity:1;}.aIptOCySncolors-4 {fill:#222D7D;fill-opacity:1;}.aIptOCySncolors-5 {fill:#C8B59A;fill-opacity:1;}.aIptOCySncolors-6 {fill:#101957;fill-opacity:1;}.aIptOCySncolors-7 {fill:#222D7D;fill-opacity:1;}.companyName {fill:#101957;fill-opacity:1;}.icon1 {fill:#222D7D;fill-opacity:1;}.icon2 {fill:#101957;fill-opacity:1;}.icon3 {fill:#FFFFFF;fill-opacity:1;}.icon3-str {stroke:#FFFFFF;stroke-opacity:1;}.text {fill:#101957;fill-opacity:1;}</style><g opacity="1" transform="rotate(0 98.0831 25.1611)">
<svg width="155.7075" height="161.5291" x="98.0831" y="25.1611" version="1.1" preserveAspectRatio="none" viewBox="11.753000259399414 9.75 50.49800109863281 52.38600158691406">
  <g transform="matrix(1 0 0 1 0 0)" class="icon1"><g font-size="16" transform="scale(1 -1)"><g transform="translate(0 -75)"><g><path d="M 19.368,12.864 L 19.368,20.705 L 54.497,20.705 L 54.497,12.864 L 19.368,12.864 Z M 17.771,25.024 L 11.753,42.343 L 15.315,43.94 L 15.192,46.765 C 19.122,48.564 23.054,49.862 26.984,50.695 C 27.837,48.198 28.335,45.7 28.212,43.203 L 21.333,41.115 L 26.369,25.024 L 17.771,25.024 Z M 47.635,25.024 L 52.671,41.115 L 45.792,43.203 C 45.669,45.7 46.167,48.198 47.02,50.695 C 50.95,49.862 54.882,48.564 58.812,46.765 L 58.689,43.94 L 62.251,42.343 L 56.233,25.024 L 47.635,25.024 Z M 32.775,25.166 L 32.775,51.171 L 41.09,51.171 L 41.09,25.166 L 32.775,25.166 Z M 31.464,59.73 C 32.841,62.032 34.638,63.916 36.985,65.25 C 39.455,63.725 41.327,61.901 42.505,59.73 C 40.816,57.586 38.998,55.703 36.985,54.21 C 34.847,55.901 32.95,57.713 31.464,59.73 Z" stroke-width="0.5" marker-start="none" marker-end="none" stroke-miterlimit="79.8403193612775"></path></g></g></g></g>
</svg>
</g><g opacity="1" transform="rotate(0 -20.7198 264.6902)">
<svg width="393.3133" height="19.04" x="-20.7198" y="264.6902" version="1.1" preserveAspectRatio="none" viewBox="4.56 -29.88 781.84 37.84">
  <g transform="matrix(1 0 0 1 0 0)" class="text"><path id="id-6izo4zJp35" d="M26.92 0L23.68 0L17.28-9Q16.20-8.88 15.04-8.88L15.04-8.88L7.52-8.88L7.52 0L4.56 0L4.56-28L15.04-28Q20.40-28 23.44-25.44Q26.48-22.88 26.48-18.40L26.48-18.40Q26.48-15.12 24.82-12.86Q23.16-10.60 20.08-9.60L20.08-9.60L26.92 0ZM14.96-11.40Q19.12-11.40 21.32-13.24Q23.52-15.08 23.52-18.40L23.52-18.40Q23.52-21.80 21.32-23.62Q19.12-25.44 14.96-25.44L14.96-25.44L7.52-25.44L7.52-11.40L14.96-11.40Z M43.88 0.20Q40.84 0.20 38.40-1.18Q35.96-2.56 34.56-5Q33.16-7.44 33.16-10.52L33.16-10.52Q33.16-13.60 34.56-16.04Q35.96-18.48 38.40-19.84Q40.84-21.20 43.88-21.20L43.88-21.20Q46.92-21.20 49.36-19.84Q51.80-18.48 53.18-16.04Q54.56-13.60 54.56-10.52L54.56-10.52Q54.56-7.44 53.18-5Q51.80-2.56 49.36-1.18Q46.92 0.20 43.88 0.20L43.88 0.20ZM43.88-2.32Q46.12-2.32 47.90-3.34Q49.68-4.36 50.68-6.24Q51.68-8.12 51.68-10.52L51.68-10.52Q51.68-12.92 50.68-14.80Q49.68-16.68 47.90-17.70Q46.12-18.72 43.88-18.72L43.88-18.72Q41.64-18.72 39.86-17.70Q38.08-16.68 37.06-14.80Q36.04-12.92 36.04-10.52L36.04-10.52Q36.04-8.12 37.06-6.24Q38.08-4.36 39.86-3.34Q41.64-2.32 43.88-2.32L43.88-2.32Z M77.04-21.04L79.84-21.04L69.32 2.52Q68.04 5.48 66.36 6.72Q64.68 7.96 62.32 7.96L62.32 7.96Q60.80 7.96 59.48 7.48Q58.16 7 57.20 6.04L57.20 6.04L58.52 3.92Q60.12 5.52 62.36 5.52L62.36 5.52Q63.80 5.52 64.82 4.72Q65.84 3.92 66.72 2L66.72 2L67.64-0.04L58.24-21.04L61.20-21.04L69.12-3.16L77.04-21.04Z M92.96-21.20Q97.08-21.20 99.28-19.14Q101.48-17.08 101.48-13.04L101.48-13.04L101.48 0L98.76 0L98.76-3.28Q97.80-1.64 95.94-0.72Q94.08 0.20 91.52 0.20L91.52 0.20Q88 0.20 85.92-1.48Q83.84-3.16 83.84-5.92L83.84-5.92Q83.84-8.60 85.78-10.24Q87.72-11.88 91.96-11.88L91.96-11.88L98.64-11.88L98.64-13.16Q98.64-15.88 97.12-17.30Q95.60-18.72 92.68-18.72L92.68-18.72Q90.68-18.72 88.84-18.06Q87-17.40 85.68-16.24L85.68-16.24L84.40-18.36Q86-19.72 88.24-20.46Q90.48-21.20 92.96-21.20L92.96-21.20ZM91.96-2.04Q94.36-2.04 96.08-3.14Q97.80-4.24 98.64-6.32L98.64-6.32L98.64-9.76L92.04-9.76Q86.64-9.76 86.64-6L86.64-6Q86.64-4.16 88.04-3.10Q89.44-2.04 91.96-2.04L91.96-2.04Z M111.60 0L111.60-29.68L114.44-29.68L114.44 0L111.60 0Z M141.20-2.56L158.04-2.56L158.04 0L138.24 0L138.24-28L157.44-28L157.44-25.44L141.20-25.44L141.20-15.48L155.68-15.48L155.68-12.96L141.20-12.96L141.20-2.56Z M182.84-29.68L185.68-29.68L185.68 0L182.96 0L182.96-4.16Q181.68-2.04 179.58-0.92Q177.48 0.20 174.84 0.20L174.84 0.20Q171.88 0.20 169.48-1.16Q167.08-2.52 165.72-4.96Q164.36-7.40 164.36-10.52L164.36-10.52Q164.36-13.64 165.72-16.08Q167.08-18.52 169.48-19.86Q171.88-21.20 174.84-21.20L174.84-21.20Q177.40-21.20 179.46-20.14Q181.52-19.08 182.84-17.04L182.84-17.04L182.84-29.68ZM175.08-2.32Q177.28-2.32 179.06-3.34Q180.84-4.36 181.86-6.24Q182.88-8.12 182.88-10.52L182.88-10.52Q182.88-12.92 181.86-14.80Q180.84-16.68 179.06-17.70Q177.28-18.72 175.08-18.72L175.08-18.72Q172.84-18.72 171.06-17.70Q169.28-16.68 168.26-14.80Q167.24-12.92 167.24-10.52L167.24-10.52Q167.24-8.12 168.26-6.24Q169.28-4.36 171.06-3.34Q172.84-2.32 175.08-2.32L175.08-2.32Z M212.12-21.04L214.96-21.04L214.96 0L212.24 0L212.24-3.84Q211.12-1.92 209.16-0.86Q207.20 0.20 204.68 0.20L204.68 0.20Q200.56 0.20 198.18-2.10Q195.80-4.40 195.80-8.84L195.80-8.84L195.80-21.04L198.64-21.04L198.64-9.12Q198.64-5.80 200.28-4.08Q201.92-2.36 204.96-2.36L204.96-2.36Q208.28-2.36 210.20-4.38Q212.12-6.40 212.12-10L212.12-10L212.12-21.04Z M234.04 0.20Q230.92 0.20 228.46-1.16Q226.00-2.52 224.60-4.98Q223.20-7.44 223.20-10.52L223.20-10.52Q223.20-13.60 224.60-16.04Q226.00-18.48 228.46-19.84Q230.92-21.20 234.04-21.20L234.04-21.20Q236.76-21.20 238.90-20.14Q241.04-19.08 242.28-17.04L242.28-17.04L240.16-15.60Q239.12-17.16 237.52-17.94Q235.92-18.72 234.04-18.72L234.04-18.72Q231.76-18.72 229.94-17.70Q228.12-16.68 227.10-14.80Q226.08-12.92 226.08-10.52L226.08-10.52Q226.08-8.08 227.10-6.22Q228.12-4.36 229.94-3.34Q231.76-2.32 234.04-2.32L234.04-2.32Q235.92-2.32 237.52-3.08Q239.12-3.84 240.16-5.40L240.16-5.40L242.28-3.96Q241.04-1.92 238.88-0.86Q236.72 0.20 234.04 0.20L234.04 0.20Z M257.60-21.20Q261.72-21.20 263.92-19.14Q266.12-17.08 266.12-13.04L266.12-13.04L266.12 0L263.40 0L263.40-3.28Q262.44-1.64 260.58-0.72Q258.72 0.20 256.16 0.20L256.16 0.20Q252.64 0.20 250.56-1.48Q248.48-3.16 248.48-5.92L248.48-5.92Q248.48-8.60 250.42-10.24Q252.36-11.88 256.60-11.88L256.60-11.88L263.28-11.88L263.28-13.16Q263.28-15.88 261.76-17.30Q260.24-18.72 257.32-18.72L257.32-18.72Q255.32-18.72 253.48-18.06Q251.64-17.40 250.32-16.24L250.32-16.24L249.04-18.36Q250.64-19.72 252.88-20.46Q255.12-21.20 257.60-21.20L257.60-21.20ZM256.60-2.04Q259.00-2.04 260.72-3.14Q262.44-4.24 263.28-6.32L263.28-6.32L263.28-9.76L256.68-9.76Q251.28-9.76 251.28-6L251.28-6Q251.28-4.16 252.68-3.10Q254.08-2.04 256.60-2.04L256.60-2.04Z M286.32-3.32L287.32-1.28Q286.52-0.56 285.34-0.18Q284.16 0.20 282.88 0.20L282.88 0.20Q279.92 0.20 278.32-1.40Q276.72-3 276.72-5.92L276.72-5.92L276.72-18.64L272.96-18.64L272.96-21.04L276.72-21.04L276.72-25.64L279.56-25.64L279.56-21.04L285.96-21.04L285.96-18.64L279.56-18.64L279.56-6.08Q279.56-4.20 280.50-3.22Q281.44-2.24 283.20-2.24L283.20-2.24Q284.08-2.24 284.90-2.52Q285.72-2.80 286.32-3.32L286.32-3.32Z M294.88 0L294.88-21.04L297.72-21.04L297.72 0L294.88 0ZM296.32-25.64Q295.44-25.64 294.84-26.24Q294.24-26.84 294.24-27.68L294.24-27.68Q294.24-28.48 294.84-29.08Q295.44-29.68 296.32-29.68L296.32-29.68Q297.20-29.68 297.80-29.10Q298.40-28.52 298.40-27.72L298.40-27.72Q298.40-26.84 297.80-26.24Q297.20-25.64 296.32-25.64L296.32-25.64Z M316.64 0.20Q313.60 0.20 311.16-1.18Q308.72-2.56 307.32-5Q305.92-7.44 305.92-10.52L305.92-10.52Q305.92-13.60 307.32-16.04Q308.72-18.48 311.16-19.84Q313.60-21.20 316.64-21.20L316.64-21.20Q319.68-21.20 322.12-19.84Q324.56-18.48 325.94-16.04Q327.32-13.60 327.32-10.52L327.32-10.52Q327.32-7.44 325.94-5Q324.56-2.56 322.12-1.18Q319.68 0.20 316.64 0.20L316.64 0.20ZM316.64-2.32Q318.88-2.32 320.66-3.34Q322.44-4.36 323.44-6.24Q324.44-8.12 324.44-10.52L324.44-10.52Q324.44-12.92 323.44-14.80Q322.44-16.68 320.66-17.70Q318.88-18.72 316.64-18.72L316.64-18.72Q314.40-18.72 312.62-17.70Q310.84-16.68 309.82-14.80Q308.80-12.92 308.80-10.52L308.80-10.52Q308.80-8.12 309.82-6.24Q310.84-4.36 312.62-3.34Q314.40-2.32 316.64-2.32L316.64-2.32Z M346.24-21.20Q350.20-21.20 352.54-18.90Q354.88-16.60 354.88-12.20L354.88-12.20L354.88 0L352.04 0L352.04-11.92Q352.04-15.20 350.40-16.92Q348.76-18.64 345.72-18.64L345.72-18.64Q342.32-18.64 340.34-16.62Q338.36-14.60 338.36-11.04L338.36-11.04L338.36 0L335.52 0L335.52-21.04L338.24-21.04L338.24-17.16Q339.40-19.08 341.46-20.14Q343.52-21.20 346.24-21.20L346.24-21.20Z M384.84-27.48Q383.00-27.48 382.06-26.48Q381.12-25.48 381.12-23.52L381.12-23.52L381.12-21.04L387.60-21.04L387.60-18.64L381.20-18.64L381.20 0L378.36 0L378.36-18.64L374.60-18.64L374.60-21.04L378.36-21.04L378.36-23.64Q378.36-26.52 380.02-28.20Q381.68-29.88 384.72-29.88L384.72-29.88Q385.92-29.88 387.04-29.54Q388.16-29.20 388.92-28.56L388.92-28.56L387.96-26.44Q386.72-27.48 384.84-27.48L384.84-27.48Z M402.08 0.20Q399.04 0.20 396.60-1.18Q394.16-2.56 392.76-5Q391.36-7.44 391.36-10.52L391.36-10.52Q391.36-13.60 392.76-16.04Q394.16-18.48 396.60-19.84Q399.04-21.20 402.08-21.20L402.08-21.20Q405.12-21.20 407.56-19.84Q410.00-18.48 411.38-16.04Q412.76-13.60 412.76-10.52L412.76-10.52Q412.76-7.44 411.38-5Q410.00-2.56 407.56-1.18Q405.12 0.20 402.08 0.20L402.08 0.20ZM402.08-2.32Q404.32-2.32 406.10-3.34Q407.88-4.36 408.88-6.24Q409.88-8.12 409.88-10.52L409.88-10.52Q409.88-12.92 408.88-14.80Q407.88-16.68 406.10-17.70Q404.32-18.72 402.08-18.72L402.08-18.72Q399.84-18.72 398.06-17.70Q396.28-16.68 395.26-14.80Q394.24-12.92 394.24-10.52L394.24-10.52Q394.24-8.12 395.26-6.24Q396.28-4.36 398.06-3.34Q399.84-2.32 402.08-2.32L402.08-2.32Z M423.68-16.92Q424.68-19.04 426.66-20.12Q428.64-21.20 431.56-21.20L431.56-21.20L431.56-18.44L430.88-18.48Q427.56-18.48 425.68-16.44Q423.80-14.40 423.80-10.72L423.80-10.72L423.80 0L420.96 0L420.96-21.04L423.68-21.04L423.68-16.92Z M459.64-21.20Q463.76-21.20 465.96-19.14Q468.16-17.08 468.16-13.04L468.16-13.04L468.16 0L465.44 0L465.44-3.28Q464.48-1.64 462.62-0.72Q460.76 0.20 458.20 0.20L458.20 0.20Q454.68 0.20 452.60-1.48Q450.52-3.16 450.52-5.92L450.52-5.92Q450.52-8.60 452.46-10.24Q454.40-11.88 458.64-11.88L458.64-11.88L465.32-11.88L465.32-13.16Q465.32-15.88 463.80-17.30Q462.28-18.72 459.36-18.72L459.36-18.72Q457.36-18.72 455.52-18.06Q453.68-17.40 452.36-16.24L452.36-16.24L451.08-18.36Q452.68-19.72 454.92-20.46Q457.16-21.20 459.64-21.20L459.64-21.20ZM458.64-2.04Q461.04-2.04 462.76-3.14Q464.48-4.24 465.32-6.32L465.32-6.32L465.32-9.76L458.72-9.76Q453.32-9.76 453.32-6L453.32-6Q453.32-4.16 454.72-3.10Q456.12-2.04 458.64-2.04L458.64-2.04Z M509.40-14.44Q512.16-13.84 513.66-12.06Q515.16-10.28 515.16-7.48L515.16-7.48Q515.16-3.88 512.50-1.94Q509.84 0 504.64 0L504.64 0L491.76 0L491.76-28L503.84-28Q508.52-28 511.10-26.12Q513.68-24.24 513.68-20.80L513.68-20.80Q513.68-18.48 512.54-16.86Q511.40-15.24 509.40-14.44L509.40-14.44ZM503.64-25.56L494.72-25.56L494.72-15.40L503.64-15.40Q507.04-15.40 508.88-16.70Q510.72-18 510.72-20.48L510.72-20.48Q510.72-22.96 508.88-24.26Q507.04-25.56 503.64-25.56L503.64-25.56ZM504.60-2.44Q508.36-2.44 510.28-3.72Q512.20-5 512.20-7.72L512.20-7.72Q512.20-12.96 504.60-12.96L504.60-12.96L494.72-12.96L494.72-2.44L504.60-2.44Z M526.44-16.92Q527.44-19.04 529.42-20.12Q531.40-21.20 534.32-21.20L534.32-21.20L534.32-18.44L533.64-18.48Q530.32-18.48 528.44-16.44Q526.56-14.40 526.56-10.72L526.56-10.72L526.56 0L523.72 0L523.72-21.04L526.44-21.04L526.44-16.92Z M541.84 0L541.84-21.04L544.68-21.04L544.68 0L541.84 0ZM543.28-25.64Q542.40-25.64 541.80-26.24Q541.20-26.84 541.20-27.68L541.20-27.68Q541.20-28.48 541.80-29.08Q542.40-29.68 543.28-29.68L543.28-29.68Q544.16-29.68 544.76-29.10Q545.36-28.52 545.36-27.72L545.36-27.72Q545.36-26.84 544.76-26.24Q544.16-25.64 543.28-25.64L543.28-25.64Z M571.76-21.04L574.48-21.04L574.48-2.56Q574.48 2.80 571.86 5.38Q569.24 7.96 563.96 7.96L563.96 7.96Q561.04 7.96 558.42 7.10Q555.80 6.24 554.16 4.72L554.16 4.72L555.60 2.56Q557.12 3.92 559.30 4.68Q561.48 5.44 563.88 5.44L563.88 5.44Q567.88 5.44 569.76 3.58Q571.64 1.72 571.64-2.20L571.64-2.20L571.64-4.88Q570.32-2.88 568.18-1.84Q566.04-0.80 563.44-0.80L563.44-0.80Q560.48-0.80 558.06-2.10Q555.64-3.40 554.26-5.74Q552.88-8.08 552.88-11.04L552.88-11.04Q552.88-14 554.26-16.32Q555.64-18.64 558.04-19.92Q560.44-21.20 563.44-21.20L563.44-21.20Q566.12-21.20 568.28-20.12Q570.44-19.04 571.76-17L571.76-17L571.76-21.04ZM563.72-3.32Q566.00-3.32 567.84-4.30Q569.68-5.28 570.70-7.04Q571.72-8.80 571.72-11.04L571.72-11.04Q571.72-13.28 570.70-15.02Q569.68-16.76 567.86-17.74Q566.04-18.72 563.72-18.72L563.72-18.72Q561.44-18.72 559.62-17.76Q557.80-16.80 556.78-15.04Q555.76-13.28 555.76-11.04L555.76-11.04Q555.76-8.80 556.78-7.04Q557.80-5.28 559.62-4.30Q561.44-3.32 563.72-3.32L563.72-3.32Z M595.56-21.20Q599.52-21.20 601.86-18.90Q604.20-16.60 604.20-12.20L604.20-12.20L604.20 0L601.36 0L601.36-11.92Q601.36-15.20 599.72-16.92Q598.08-18.64 595.04-18.64L595.04-18.64Q591.64-18.64 589.66-16.62Q587.68-14.60 587.68-11.04L587.68-11.04L587.68 0L584.84 0L584.84-29.68L587.68-29.68L587.68-17.36Q588.84-19.20 590.88-20.20Q592.92-21.20 595.56-21.20L595.56-21.20Z M624.40-3.32L625.40-1.28Q624.60-0.56 623.42-0.18Q622.24 0.20 620.96 0.20L620.96 0.20Q618.00 0.20 616.40-1.40Q614.80-3 614.80-5.92L614.80-5.92L614.80-18.64L611.04-18.64L611.04-21.04L614.80-21.04L614.80-25.64L617.64-25.64L617.64-21.04L624.04-21.04L624.04-18.64L617.64-18.64L617.64-6.08Q617.64-4.20 618.58-3.22Q619.52-2.24 621.28-2.24L621.28-2.24Q622.16-2.24 622.98-2.52Q623.80-2.80 624.40-3.32L624.40-3.32Z M665.64-25.44L649.40-25.44L649.40-14.44L663.88-14.44L663.88-11.88L649.40-11.88L649.40 0L646.44 0L646.44-28L665.64-28L665.64-25.44Z M688.96-21.04L691.80-21.04L691.80 0L689.08 0L689.08-3.84Q687.96-1.92 686.00-0.86Q684.04 0.20 681.52 0.20L681.52 0.20Q677.40 0.20 675.02-2.10Q672.64-4.40 672.64-8.84L672.64-8.84L672.64-21.04L675.48-21.04L675.48-9.12Q675.48-5.80 677.12-4.08Q678.76-2.36 681.80-2.36L681.80-2.36Q685.12-2.36 687.04-4.38Q688.96-6.40 688.96-10L688.96-10L688.96-21.04Z M712.24-3.32L713.24-1.28Q712.44-0.56 711.26-0.18Q710.08 0.20 708.80 0.20L708.80 0.20Q705.84 0.20 704.24-1.40Q702.64-3 702.64-5.92L702.64-5.92L702.64-18.64L698.88-18.64L698.88-21.04L702.64-21.04L702.64-25.64L705.48-25.64L705.48-21.04L711.88-21.04L711.88-18.64L705.48-18.64L705.48-6.08Q705.48-4.20 706.42-3.22Q707.36-2.24 709.12-2.24L709.12-2.24Q710.00-2.24 710.82-2.52Q711.64-2.80 712.24-3.32L712.24-3.32Z M736.92-21.04L739.76-21.04L739.76 0L737.04 0L737.04-3.84Q735.92-1.92 733.96-0.86Q732.00 0.20 729.48 0.20L729.48 0.20Q725.36 0.20 722.98-2.10Q720.60-4.40 720.60-8.84L720.60-8.84L720.60-21.04L723.44-21.04L723.44-9.12Q723.44-5.80 725.08-4.08Q726.72-2.36 729.76-2.36L729.76-2.36Q733.08-2.36 735.00-4.38Q736.92-6.40 736.92-10L736.92-10L736.92-21.04Z M752.84-16.92Q753.84-19.04 755.82-20.12Q757.80-21.20 760.72-21.20L760.72-21.20L760.72-18.44L760.04-18.48Q756.72-18.48 754.84-16.44Q752.96-14.40 752.96-10.72L752.96-10.72L752.96 0L750.12 0L750.12-21.04L752.84-21.04L752.84-16.92Z M786.40-10.52L786.36-9.64L768.76-9.64Q769.00-6.36 771.28-4.34Q773.56-2.32 777.04-2.32L777.04-2.32Q779.00-2.32 780.64-3.02Q782.28-3.72 783.48-5.08L783.48-5.08L785.08-3.24Q783.68-1.56 781.58-0.68Q779.48 0.20 776.96 0.20L776.96 0.20Q773.72 0.20 771.22-1.18Q768.72-2.56 767.32-5Q765.92-7.44 765.92-10.52L765.92-10.52Q765.92-13.60 767.26-16.04Q768.60-18.48 770.94-19.84Q773.28-21.20 776.20-21.20L776.20-21.20Q779.12-21.20 781.44-19.84Q783.76-18.48 785.08-16.06Q786.40-13.64 786.40-10.52L786.40-10.52ZM776.20-18.76Q773.16-18.76 771.10-16.82Q769.04-14.88 768.76-11.76L768.76-11.76L783.68-11.76Q783.40-14.88 781.34-16.82Q779.28-18.76 776.20-18.76L776.20-18.76Z"/></g>
</svg>
</g><g opacity="1" transform="rotate(0 -18.6976 212.6902)">
<svg width="389.2689" height="34" x="-18.6976" y="212.6902" version="1.1" preserveAspectRatio="none" viewBox="2.6367 -27.3242 405.41009999999994 35.4102">
  <g transform="matrix(1 0 0 1 0 0)" class="companyName"><path id="id-D6z1nYkh16" d="M33.44-16.80L31.23-16.80L31.23-18.36Q31.23-20.04 30.27-21.30Q29.32-22.56 27.72-23.41Q26.13-24.26 24.06-24.69Q21.99-25.12 19.77-25.12L19.77-25.12Q15.98-25.12 13.24-24.29Q10.51-23.46 8.75-21.92Q6.99-20.39 6.15-18.22Q5.31-16.05 5.31-13.40L5.31-13.40Q5.31-10.72 6.21-8.56Q7.11-6.41 8.91-4.88Q10.70-3.36 13.39-2.54Q16.07-1.72 19.65-1.72L19.65-1.72Q21.66-1.72 23.50-2.08Q25.33-2.44 26.85-3.14Q28.36-3.85 29.49-4.89Q30.63-5.94 31.23-7.32L31.23-7.32L33.93-7.32Q33.22-5.61 31.98-4.17Q30.74-2.73 28.93-1.69Q27.11-0.64 24.71-0.06Q22.30 0.53 19.28 0.53L19.28 0.53Q15.74 0.53 12.70-0.35Q9.65-1.23 7.41-2.97Q5.18-4.71 3.91-7.32Q2.64-9.94 2.64-13.40L2.64-13.40Q2.64-16.86 3.92-19.47Q5.20-22.09 7.46-23.83Q9.73-25.57 12.81-26.45Q15.90-27.32 19.51-27.32L19.51-27.32Q21.88-27.32 23.66-27.03Q25.45-26.74 26.83-26.28Q28.20-25.82 29.26-25.24Q30.31-24.67 31.23-24.12L31.23-24.12L31.23-26.84L33.44-26.84L33.44-16.80Z M37.25-16.41L37.25-18.59L44.08-18.59L44.08-14.69Q44.88-15.63 45.80-16.44Q46.72-17.25 47.78-17.84Q48.85-18.44 50.07-18.78Q51.29-19.12 52.70-19.12L52.70-19.12Q53.40-19.12 54.00-19.01Q54.61-18.91 55.08-18.77Q55.55-18.63 55.86-18.50Q56.17-18.36 56.29-18.32L56.29-18.32L55.41-16.07Q54.92-16.33 54.15-16.60Q53.38-16.88 52.21-16.88L52.21-16.88Q50.72-16.88 49.48-16.42Q48.24-15.96 47.24-15.27Q46.23-14.59 45.45-13.76Q44.67-12.93 44.08-12.21L44.08-12.21L44.08-2.21L48.89-2.21L48.89 0L37.25 0L37.25-2.21L41.64-2.21L41.64-16.41L37.25-16.41Z M81.78-9.28L81.78-9.28Q81.78-6.72 80.86-4.87Q79.94-3.03 78.34-1.83Q76.74-0.63 74.56-0.05Q72.38 0.53 69.86 0.53L69.86 0.53Q67.32 0.53 65.14-0.05Q62.95-0.63 61.34-1.83Q59.73-3.03 58.81-4.87Q57.89-6.72 57.89-9.28L57.89-9.28Q57.89-11.82 58.82-13.68Q59.75-15.55 61.37-16.75Q62.99-17.95 65.18-18.54Q67.36-19.12 69.86-19.12L69.86-19.12Q72.38-19.12 74.56-18.54Q76.74-17.97 78.34-16.77Q79.94-15.57 80.86-13.70Q81.78-11.84 81.78-9.28ZM79.38-9.28L79.38-9.28Q79.38-13.05 76.98-15.04Q74.59-17.03 69.86-17.03L69.86-17.03Q65.12-17.03 62.71-15.04Q60.29-13.05 60.29-9.28L60.29-9.28Q60.29-5.51 62.71-3.54Q65.12-1.56 69.86-1.56L69.86-1.56Q74.59-1.56 76.98-3.54Q79.38-5.53 79.38-9.28Z M84.10-16.41L84.10-18.59L93.75-18.59L93.75-16.41L90.06-16.41L95.55-2.87L101.89-18.59L104.86-18.59L111.23-2.87L116.66-16.41L113.03-16.41L113.03-18.59L122.66-18.59L122.66-16.41L119.14-16.41L112.50 0L109.98 0L103.38-16.15L96.82 0L94.26 0L87.58-16.41L84.10-16.41Z M124.38-16.41L124.38-18.59L131.21-18.59L131.21-15.08Q132.13-15.96 133.26-16.71Q134.39-17.46 135.70-18.03Q137.01-18.59 138.46-18.92Q139.90-19.24 141.43-19.24L141.43-19.24Q143.24-19.24 144.60-18.78Q145.96-18.32 146.86-17.48Q147.75-16.64 148.20-15.44Q148.65-14.24 148.65-12.75L148.65-12.75L148.65-2.21L153.07-2.21L153.07 0L141.82 0L141.82-2.21L146.21-2.21L146.21-12.03Q146.21-13.52 145.83-14.48Q145.45-15.45 144.75-16.02Q144.04-16.58 143.04-16.81Q142.03-17.03 140.78-17.03L140.78-17.03Q139.32-17.03 137.91-16.64Q136.50-16.25 135.26-15.66Q134.02-15.08 132.98-14.37Q131.93-13.65 131.21-13.01L131.21-13.01L131.21-2.21L135.63-2.21L135.63 0L124.38 0L124.38-2.21L128.77-2.21L128.77-16.41L124.38-16.41Z M169.12-24.65L169.12-26.84L182.77-26.84L182.77-24.65L177.17-24.65L177.17-8.24Q177.17-6.89 177.88-5.69Q178.59-4.49 180-3.59Q181.41-2.70 183.48-2.17Q185.55-1.64 188.28-1.64L188.28-1.64Q191.00-1.64 193.07-2.17Q195.14-2.70 196.54-3.59Q197.95-4.49 198.66-5.69Q199.38-6.89 199.38-8.24L199.38-8.24L199.38-24.65L193.77-24.65L193.77-26.84L207.40-26.84L207.40-24.65L201.82-24.65L201.82-8.44Q201.82-6.43 200.97-4.78Q200.12-3.13 198.43-1.94Q196.74-0.76 194.20-0.12Q191.66 0.53 188.28 0.53L188.28 0.53Q184.90 0.53 182.36-0.12Q179.82-0.76 178.13-1.94Q176.43-3.13 175.58-4.78Q174.73-6.43 174.73-8.44L174.73-8.44L174.73-24.65L169.12-24.65Z M208.73-16.41L208.73-18.59L215.57-18.59L215.57-15.08Q216.48-15.96 217.62-16.71Q218.75-17.46 220.06-18.03Q221.37-18.59 222.81-18.92Q224.26-19.24 225.78-19.24L225.78-19.24Q227.60-19.24 228.96-18.78Q230.31-18.32 231.21-17.48Q232.11-16.64 232.56-15.44Q233.01-14.24 233.01-12.75L233.01-12.75L233.01-2.21L237.42-2.21L237.42 0L226.17 0L226.17-2.21L230.57-2.21L230.57-12.03Q230.57-13.52 230.19-14.48Q229.80-15.45 229.10-16.02Q228.40-16.58 227.39-16.81Q226.39-17.03 225.14-17.03L225.14-17.03Q223.67-17.03 222.27-16.64Q220.86-16.25 219.62-15.66Q218.38-15.08 217.33-14.37Q216.29-13.65 215.57-13.01L215.57-13.01L215.57-2.21L219.98-2.21L219.98 0L208.73 0L208.73-2.21L213.13-2.21L213.13-16.41L208.73-16.41Z M238.96-16.41L238.96-18.59L245.80-18.59L245.80-2.21L250.21-2.21L250.21 0L238.96 0L238.96-2.21L243.36-2.21L243.36-16.41L238.96-16.41ZM242.13-23.81L242.13-23.81Q242.13-24.26 242.29-24.66Q242.46-25.06 242.75-25.35Q243.05-25.64 243.44-25.82Q243.83-26.00 244.28-26.00L244.28-26.00Q244.73-26.00 245.13-25.82Q245.53-25.64 245.83-25.35Q246.13-25.06 246.31-24.66Q246.48-24.26 246.48-23.81L246.48-23.81Q246.48-23.36 246.31-22.96Q246.13-22.56 245.83-22.27Q245.53-21.97 245.13-21.81Q244.73-21.64 244.28-21.64L244.28-21.64Q243.83-21.64 243.44-21.81Q243.05-21.97 242.75-22.27Q242.46-22.56 242.29-22.96Q242.13-23.36 242.13-23.81Z M250.84-16.41L250.84-18.59L260.49-18.59L260.49-16.41L257.21-16.41L264.08-2.36L271.00-16.41L267.71-16.41L267.71-18.59L277.36-18.59L277.36-16.41L273.67-16.41L265.31 0L262.79 0L254.51-16.41L250.84-16.41Z M281.41-10.23L298.57-10.23Q298.48-11.56 297.97-12.75Q297.46-13.95 296.45-14.85Q295.43-15.76 293.89-16.30Q292.34-16.84 290.18-16.84L290.18-16.84Q288.14-16.84 286.58-16.30Q285.02-15.76 283.93-14.85Q282.83-13.95 282.21-12.75Q281.58-11.56 281.41-10.23L281.41-10.23ZM290.14 0.49L290.14 0.49Q287.58 0.49 285.50-0.19Q283.42-0.86 281.95-2.12Q280.49-3.38 279.69-5.18Q278.89-6.97 278.89-9.20L278.89-9.20Q278.89-11.37 279.73-13.17Q280.57-14.98 282.07-16.28Q283.57-17.58 285.64-18.29Q287.71-19.00 290.18-19.00L290.18-19.00Q292.73-19.00 294.77-18.28Q296.80-17.56 298.20-16.20Q299.61-14.84 300.35-12.91Q301.09-10.98 301.09-8.55L301.09-8.55L301.09-8.13L281.41-8.13Q281.54-6.64 282.18-5.45Q282.81-4.26 283.93-3.42Q285.04-2.58 286.59-2.13Q288.14-1.68 290.14-1.68L290.14-1.68Q292.05-1.68 293.47-1.99Q294.88-2.30 295.87-2.83Q296.86-3.36 297.47-4.02Q298.09-4.69 298.42-5.39L298.42-5.39L300.86-5.39Q299.71-2.42 296.94-0.97Q294.18 0.49 290.14 0.49Z M303.85-16.41L303.85-18.59L310.68-18.59L310.68-14.69Q311.48-15.63 312.40-16.44Q313.32-17.25 314.38-17.84Q315.45-18.44 316.67-18.78Q317.89-19.12 319.30-19.12L319.30-19.12Q320-19.12 320.61-19.01Q321.21-18.91 321.68-18.77Q322.15-18.63 322.46-18.50Q322.77-18.36 322.89-18.32L322.89-18.32L322.01-16.07Q321.52-16.33 320.75-16.60Q319.98-16.88 318.81-16.88L318.81-16.88Q317.32-16.88 316.08-16.42Q314.84-15.96 313.84-15.27Q312.83-14.59 312.05-13.76Q311.27-12.93 310.68-12.21L310.68-12.21L310.68-2.21L315.49-2.21L315.49 0L303.85 0L303.85-2.21L308.24-2.21L308.24-16.41L303.85-16.41Z M326.93 0L324.75 0L324.75-6.84L326.93-6.84L326.93-5.64Q326.93-4.57 327.67-3.80Q328.40-3.03 329.55-2.53Q330.70-2.03 332.10-1.80Q333.50-1.56 334.82-1.56L334.82-1.56Q336.39-1.56 337.70-1.73Q339.00-1.89 339.96-2.29Q340.92-2.68 341.45-3.31Q341.97-3.95 341.97-4.88L341.97-4.88Q341.97-5.76 341.49-6.38Q341.02-6.99 340.21-7.40Q339.39-7.81 338.31-8.09Q337.23-8.36 336.01-8.56Q334.79-8.77 333.50-8.96Q332.21-9.14 330.99-9.40Q329.77-9.67 328.68-10.04Q327.60-10.41 326.79-10.99Q325.98-11.56 325.50-12.38Q325.02-13.20 325.02-14.36L325.02-14.36Q325.02-15.84 325.76-16.79Q326.50-17.73 327.70-18.28Q328.89-18.83 330.40-19.03Q331.91-19.24 333.46-19.24L333.46-19.24Q335.70-19.24 337.58-18.73Q339.45-18.22 340.74-17.40L340.74-17.40L340.74-18.59L342.93-18.59L342.93-12.32L340.74-12.32L340.74-13.77Q340.74-14.39 340.41-14.89Q340.08-15.39 339.51-15.77Q338.95-16.15 338.22-16.42Q337.50-16.68 336.71-16.85Q335.92-17.01 335.13-17.09Q334.34-17.17 333.65-17.17L333.65-17.17Q330.57-17.17 328.99-16.56Q327.42-15.96 327.42-14.36L327.42-14.36Q327.42-13.59 327.90-13.08Q328.38-12.56 329.19-12.20Q330-11.84 331.08-11.59Q332.17-11.35 333.39-11.14Q334.61-10.94 335.90-10.73Q337.19-10.53 338.41-10.22Q339.63-9.92 340.71-9.49Q341.80-9.06 342.61-8.43Q343.42-7.79 343.90-6.89Q344.38-6.00 344.38-4.77L344.38-4.77Q344.38-3.69 343.96-2.89Q343.55-2.09 342.87-1.49Q342.19-0.90 341.30-0.51Q340.41-0.12 339.43 0.11Q338.46 0.33 337.46 0.43Q336.46 0.53 335.59 0.53L335.59 0.53Q332.66 0.53 330.50-0.10Q328.34-0.72 326.93-1.72L326.93-1.72L326.93 0Z M346.97-16.41L346.97-18.59L353.81-18.59L353.81-2.21L358.22-2.21L358.22 0L346.97 0L346.97-2.21L351.37-2.21L351.37-16.41L346.97-16.41ZM350.14-23.81L350.14-23.81Q350.14-24.26 350.30-24.66Q350.47-25.06 350.76-25.35Q351.05-25.64 351.45-25.82Q351.84-26.00 352.29-26.00L352.29-26.00Q352.73-26.00 353.13-25.82Q353.54-25.64 353.84-25.35Q354.14-25.06 354.32-24.66Q354.49-24.26 354.49-23.81L354.49-23.81Q354.49-23.36 354.32-22.96Q354.14-22.56 353.84-22.27Q353.54-21.97 353.13-21.81Q352.73-21.64 352.29-21.64L352.29-21.64Q351.84-21.64 351.45-21.81Q351.05-21.97 350.76-22.27Q350.47-22.56 350.30-22.96Q350.14-23.36 350.14-23.81Z M358.85-16.41L358.85-18.59L363.89-18.59L363.89-25.04L366.33-25.04L366.33-18.59L379.41-18.59L379.41-16.41L366.33-16.41L366.33-5.57Q366.33-4.41 366.75-3.65Q367.17-2.89 367.93-2.44Q368.69-1.99 369.76-1.82Q370.82-1.64 372.09-1.64L372.09-1.64Q373.36-1.64 374.41-1.80Q375.47-1.95 376.33-2.20Q377.19-2.44 377.90-2.76Q378.61-3.09 379.20-3.44L379.20-3.44L380.41-1.48Q379.69-1.07 378.78-0.71Q377.87-0.35 376.82-0.09Q375.76 0.18 374.57 0.33Q373.38 0.49 372.13 0.49L372.13 0.49Q370.25 0.49 368.73 0.18Q367.21-0.14 366.13-0.84Q365.06-1.54 364.47-2.69Q363.89-3.83 363.89-5.49L363.89-5.49L363.89-16.41L358.85-16.41Z M408.05-18.59L408.05-16.41L404.36-16.41L397.13-2.21L396.68-1.37Q395.96 0.06 395.32 1.32Q394.69 2.58 394.02 3.62Q393.36 4.67 392.62 5.50Q391.88 6.33 390.97 6.90Q390.06 7.48 388.93 7.78Q387.79 8.09 386.33 8.09L386.33 8.09Q385.16 8.09 383.88 7.75Q382.60 7.42 381.60 6.76L381.60 6.76L382.68 4.69Q382.95 4.86 383.29 5.08Q383.63 5.29 384.08 5.48Q384.53 5.66 385.09 5.79Q385.64 5.92 386.33 5.92L386.33 5.92Q387.71 5.92 388.74 5.53Q389.77 5.14 390.59 4.40Q391.41 3.67 392.08 2.60Q392.75 1.52 393.44 0.16L393.44 0.16L385.16-16.41L381.52-16.41L381.52-18.59L391.17-18.59L391.17-16.41L387.97-16.41L394.77-2.40L401.68-16.41L398.40-16.41L398.40-18.59L408.05-18.59Z"/></g>
</svg>
</g></svg></svg>